<svg viewBox="0 0 487 122" fill="none" xmlns="http://www.w3.org/2000/svg"><path d="M60.889 107H6.854v-7.533L35.4 67.748c4.23-4.796 7.137-8.685 8.723-11.668 1.624-3.02 2.436-6.136 2.436-9.346 0-4.304-1.303-7.835-3.909-10.591-2.605-2.757-6.079-4.135-10.422-4.135-5.21 0-9.27 1.491-12.177 4.474-2.87 2.946-4.305 7.062-4.305 12.348H5.268c0-7.59 2.435-13.726 7.306-18.408 4.91-4.682 11.46-7.024 19.654-7.024 7.666 0 13.726 2.02 18.182 6.061 4.456 4.003 6.684 9.346 6.684 16.03 0 8.118-5.173 17.784-15.52 29l-22.09 23.958H60.89V107zm8.376-41.348l4.191-41.12h42.254v9.685H82.349l-2.493 22.486c4.04-2.379 8.629-3.568 13.764-3.568 7.514 0 13.481 2.492 17.899 7.476 4.418 4.947 6.627 11.65 6.627 20.108 0 8.496-2.304 15.198-6.911 20.107-4.569 4.871-10.969 7.307-19.2 7.307-7.288 0-13.236-2.02-17.843-6.061-4.606-4.04-7.23-9.629-7.873-16.765h9.912c.642 4.72 2.323 8.288 5.041 10.705 2.72 2.379 6.306 3.568 10.762 3.568 4.871 0 8.685-1.661 11.442-4.984 2.794-3.323 4.191-7.911 4.191-13.764 0-5.513-1.51-9.931-4.531-13.254-2.983-3.36-6.967-5.04-11.951-5.04-4.57 0-8.157 1-10.762 3.001l-2.776 2.266-8.382-2.153zM154.57 50.055h-13.218L138.586 58h-6.164l12.89-34.125h5.321L163.547 58h-6.188l-2.789-7.945zm-11.554-4.782h9.89l-4.945-14.156-4.945 14.156zM194.438 58h-5.907V28.656h-15.023V58h-5.906V23.875h26.836V58zm13.101-12.68V58h-5.93V23.875h13.055c3.813 0 6.836.992 9.07 2.977 2.25 1.984 3.375 4.609 3.375 7.875 0 3.343-1.101 5.945-3.304 7.804-2.188 1.86-5.258 2.79-9.211 2.79h-7.055zm0-4.758h7.125c2.109 0 3.719-.492 4.828-1.476 1.11-1 1.664-2.438 1.664-4.313 0-1.843-.562-3.312-1.687-4.406-1.125-1.11-2.672-1.68-4.641-1.71h-7.289v11.905zm44.719 2.204h-14.016v10.5h16.383V58h-22.313V23.875h22.149v4.781h-16.219v9.422h14.016v4.688zm34.031-18.891V58h-5.906V28.656H269.93l-.61 13.196c-.234 4.125-.742 7.328-1.523 9.609-.766 2.266-1.883 3.922-3.352 4.969-1.468 1.047-3.437 1.57-5.906 1.57h-1.5v-4.734l.938-.07c1.359-.126 2.406-.602 3.14-1.43.75-.828 1.313-2.078 1.688-3.75.39-1.688.664-4.164.82-7.43l.656-16.711h22.008zM310.266 58V45.25h-6.61L297.07 58h-6.351l7.617-14.508c-3.969-1.875-5.953-4.945-5.953-9.21 0-3.266 1.07-5.805 3.211-7.618 2.156-1.828 5.156-2.758 9-2.789h11.601V58h-5.929zm-11.977-23.46c0 1.92.539 3.42 1.617 4.5 1.078 1.077 2.696 1.616 4.852 1.616h5.508v-12h-5.508c-2.188 0-3.813.524-4.875 1.57-1.063 1.047-1.594 2.485-1.594 4.313zm37.969 26.39h-4.477l13.43-37.055h4.477l-13.43 37.055zm44.39-2.93h-5.671V30.602l-8.368 2.859v-4.805l13.313-4.898h.726V58zm34.571-30.96L401.578 58h-5.976l13.617-29.555H391.57v-4.57h23.649v3.164zM423.586 52c1.062 0 1.883.305 2.461.914.578.594.867 1.344.867 2.25 0 .89-.289 1.633-.867 2.227-.578.578-1.399.867-2.461.867-1.016 0-1.82-.29-2.414-.867-.594-.578-.891-1.32-.891-2.227 0-.906.289-1.656.867-2.25.579-.61 1.391-.914 2.438-.914zm0-19.898c1.062 0 1.883.304 2.461.914.578.593.867 1.343.867 2.25 0 .89-.289 1.632-.867 2.226-.578.578-1.399.867-2.461.867-1.016 0-1.82-.289-2.414-.867-.594-.578-.891-1.32-.891-2.226 0-.907.289-1.657.867-2.25.579-.61 1.391-.914 2.438-.914zm31.195 11.53c0 4.907-.922 8.61-2.765 11.11-1.828 2.485-4.618 3.727-8.368 3.727-3.687 0-6.468-1.211-8.343-3.633-1.86-2.438-2.813-6.04-2.86-10.805v-5.906c0-4.906.914-8.586 2.743-11.04 1.843-2.452 4.648-3.679 8.414-3.679 3.734 0 6.515 1.196 8.343 3.586 1.844 2.39 2.789 5.969 2.836 10.735v5.906zm-5.695-6.374c0-3.203-.438-5.547-1.313-7.031-.875-1.5-2.265-2.25-4.171-2.25-1.86 0-3.227.71-4.102 2.132-.875 1.407-1.336 3.61-1.383 6.61v7.734c0 3.188.445 5.563 1.336 7.125.891 1.563 2.289 2.344 4.195 2.344 1.829 0 3.18-.719 4.055-2.156.875-1.453 1.336-3.72 1.383-6.797v-7.711zm32.976 6.375c0 4.906-.921 8.61-2.765 11.11-1.828 2.484-4.617 3.726-8.367 3.726-3.688 0-6.469-1.211-8.344-3.633-1.859-2.438-2.813-6.04-2.859-10.805v-5.906c0-4.906.914-8.586 2.742-11.04 1.843-2.452 4.648-3.679 8.414-3.679 3.734 0 6.515 1.196 8.344 3.586 1.843 2.39 2.789 5.969 2.835 10.735v5.906zm-5.695-6.375c0-3.203-.437-5.547-1.312-7.031-.875-1.5-2.266-2.25-4.172-2.25-1.86 0-3.227.71-4.102 2.132-.875 1.407-1.336 3.61-1.383 6.61v7.734c0 3.188.446 5.563 1.336 7.125.891 1.563 2.289 2.344 4.196 2.344 1.828 0 3.179-.719 4.054-2.156.875-1.453 1.336-3.72 1.383-6.797v-7.711zM135.234 108V82.406h7.559c2.742 0 4.822.569 6.24 1.705 1.418 1.125 2.127 2.79 2.127 4.992 0 1.325-.363 2.479-1.09 3.463-.715.973-1.699 1.67-2.953 2.092 1.488.328 2.684 1.06 3.586 2.198.914 1.136 1.371 2.449 1.371 3.937 0 2.262-.732 4.031-2.197 5.309-1.453 1.265-3.481 1.898-6.082 1.898h-8.561zm2.162-12.305v10.477h6.487c1.851 0 3.316-.469 4.394-1.406 1.09-.95 1.635-2.262 1.635-3.938 0-1.582-.521-2.83-1.564-3.744-1.032-.926-2.461-1.389-4.289-1.389h-6.663zm0-1.81h5.907c1.804-.035 3.199-.457 4.183-1.266.996-.82 1.494-2.01 1.494-3.568 0-1.64-.515-2.848-1.546-3.621-1.02-.786-2.567-1.178-4.641-1.178h-5.397v9.633zm38.831 2.707c0 2.355-.411 4.424-1.231 6.205-.808 1.781-1.969 3.152-3.48 4.113-1.512.961-3.258 1.442-5.239 1.442-2.988 0-5.402-1.067-7.242-3.2-1.84-2.144-2.76-5.033-2.76-8.666V93.85c0-2.332.411-4.395 1.231-6.188.832-1.805 2.004-3.187 3.515-4.148 1.512-.973 3.252-1.46 5.221-1.46 1.969 0 3.703.475 5.203 1.424 1.512.95 2.678 2.291 3.498 4.026.821 1.734 1.248 3.744 1.284 6.03v3.058zm-2.163-2.778c0-3.082-.697-5.496-2.091-7.242-1.395-1.746-3.305-2.619-5.731-2.619-2.379 0-4.277.879-5.695 2.637-1.406 1.746-2.109 4.19-2.109 7.33v2.672c0 3.035.703 5.443 2.109 7.224 1.406 1.77 3.316 2.655 5.73 2.655 2.45 0 4.36-.873 5.731-2.619 1.371-1.758 2.056-4.202 2.056-7.33v-2.708zm25.735 6.206c-.293 2.695-1.26 4.757-2.901 6.187-1.628 1.43-3.802 2.145-6.521 2.145-1.898 0-3.58-.475-5.045-1.424-1.453-.949-2.578-2.291-3.375-4.026-.797-1.746-1.201-3.738-1.213-5.976v-3.323c0-2.273.399-4.288 1.195-6.046.797-1.758 1.94-3.112 3.428-4.06 1.5-.962 3.223-1.442 5.168-1.442 2.742 0 4.904.744 6.486 2.232 1.594 1.477 2.52 3.522 2.778 6.135h-2.18c-.539-4.348-2.9-6.522-7.084-6.522-2.32 0-4.172.868-5.555 2.602-1.371 1.734-2.056 4.13-2.056 7.19v3.128c0 2.953.668 5.309 2.004 7.067 1.347 1.758 3.164 2.636 5.449 2.636 2.262 0 3.967-.539 5.115-1.617 1.149-1.09 1.858-2.718 2.127-4.886h2.18zm11.021-4.026h-3.515V108h-2.162V82.406h2.162v11.742h3.41l9.896-11.742h2.725l-10.512 12.586L224.109 108h-2.689l-10.6-12.006zm19.389 1.582V108h-2.162V82.406h8.719c2.66 0 4.757.68 6.293 2.04 1.546 1.359 2.32 3.228 2.32 5.607 0 2.402-.744 4.26-2.233 5.572-1.476 1.3-3.621 1.951-6.433 1.951h-6.504zm0-1.828h6.557c2.097 0 3.697-.498 4.798-1.494 1.102-.996 1.653-2.385 1.653-4.166 0-1.77-.551-3.176-1.653-4.219-1.089-1.055-2.642-1.594-4.658-1.617h-6.697v11.496zm34.154-.017h-11.97v10.441h13.763V108H250.23V82.406h15.838v1.846h-13.675v9.65h11.97v1.829zm24.487 4.289c-.293 2.695-1.26 4.757-2.901 6.187-1.629 1.43-3.803 2.145-6.521 2.145-1.899 0-3.58-.475-5.045-1.424-1.453-.949-2.578-2.291-3.375-4.026-.797-1.746-1.201-3.738-1.213-5.976v-3.323c0-2.273.398-4.288 1.195-6.046s1.94-3.112 3.428-4.06c1.5-.962 3.223-1.442 5.168-1.442 2.742 0 4.904.744 6.486 2.232 1.594 1.477 2.52 3.522 2.778 6.135h-2.18c-.539-4.348-2.9-6.522-7.084-6.522-2.32 0-4.172.868-5.555 2.602-1.371 1.734-2.056 4.13-2.056 7.19v3.128c0 2.953.668 5.309 2.004 7.067 1.347 1.758 3.164 2.636 5.449 2.636 2.261 0 3.967-.539 5.115-1.617 1.148-1.09 1.857-2.718 2.127-4.886h2.18zm19.388-4.29h-11.97v10.442h13.763V108h-15.926V82.406h15.838v1.846h-13.675v9.65h11.97v1.829zm25.33 12.27h-2.179V95.73h-14.625V108h-2.162V82.406h2.162v11.496h14.625V82.406h2.179V108zm8.578-14.484h6.346c1.746 0 3.258.293 4.535.878 1.278.575 2.25 1.407 2.918 2.497.68 1.078 1.02 2.355 1.02 3.832 0 2.261-.756 4.043-2.268 5.343-1.511 1.289-3.603 1.934-6.275 1.934h-8.438V82.406h2.162v11.11zm0 1.845v10.811h6.329c1.98 0 3.527-.486 4.64-1.459 1.114-.984 1.67-2.326 1.67-4.025 0-1.618-.539-2.9-1.617-3.85-1.078-.961-2.59-1.453-4.535-1.477h-6.487zm34.12.37h-11.971v10.441h13.764V108h-15.926V82.406h15.838v1.846h-13.676v9.65h11.971v1.829z" fill="#FBD189"/></svg>