<svg xmlns="http://www.w3.org/2000/svg" viewBox="0 0 48 48"><g fill="#E64A19"><path d="M19 27c-.4 0-.8.1-1.1.3-.1-.2-.1-.3-.2-.5.8-.3 1.3-1 1.3-1.9 0-1.1-.9-2-2-2 0-.2 0-.3-.1-.5 0-.2.1-.3.1-.5 0-1.1-.9-2-2-2-.7 0-1.4.4-1.7 1H13c-1.1 0-2 .9-2 2 0 .9.6 1.6 1.3 1.9-.2.4-.3.8-.3 1.2 0 1.1.9 2 2 2 0 1.1.9 2 2 2 .4 0 .8-.1 1.1-.3.3.8 1 1.3 1.9 1.3 1.1 0 2-.9 2-2s-.9-2-2-2zM37 23c0-1.1-.9-2-2-2h-.3c-.3-.6-1-1-1.7-1-1.1 0-2 .9-2 2 0 .2 0 .3.1.5 0 .2-.1.3-.1.5-1.1 0-2 .9-2 2 0 .9.6 1.6 1.3 1.9-.1.1-.2.3-.2.5-.3-.3-.7-.4-1.1-.4-1.1 0-2 .9-2 2s.9 2 2 2c.9 0 1.6-.6 1.9-1.3.3.2.7.3 1.1.3 1.1 0 2-.9 2-2 1.1 0 2-.9 2-2 0-.4-.1-.8-.3-1.1.7-.3 1.3-1 1.3-1.9z"/></g><path fill="#FF9800" d="M24 37l-5-4v-8h10v8z"/><path fill="#F44336" d="M29 31s-1.5 3-5 3v10h16c0-11-11-13-11-13z"/><path fill="#03A9F4" d="M24 34c-3.5 0-5-3-5-3S8 33 8 44h16V34z"/><g fill="#FFA726"><circle cx="33" cy="21" r="2"/><circle cx="15" cy="21" r="2"/></g><path fill="#FFB74D" d="M33 15c0-7.6-18-5-18 0v7c0 5 4 9 9 9s9-4 9-9v-7z"/><g fill="#784719"><circle cx="28" cy="21" r="1"/><circle cx="20" cy="21" r="1"/></g><path fill="#FFF" d="M28 24.5c-1.7 0-2.5 1.5-4 1.5s-2.5-1.5-4-1.5c-.8 0-1.5.7-1.5 1.5 0 1.1 2.7 4 5.5 4s5.5-2.9 5.5-4c0-.8-.7-1.5-1.5-1.5z"/><path fill="#FF5722" d="M37.7 14c.2-.3.3-.6.3-1 0-1.1-.9-2-2-2 0-.8-.5-1.5-1.2-1.8-.3-.7-1-1.2-1.8-1.2 0-1.1-.9-2-2-2h-.3c-.3-.6-1-1-1.7-1-.4 0-.8.1-1.1.3-.3-.7-1-1.3-1.9-1.3-.6 0-1.1.3-1.5.7-.4-.4-.9-.7-1.5-.7-.4 0-.7.1-1 .3-.3-.2-.6-.3-1-.3-.7 0-1.4.4-1.7 1H19c-.9 0-1.6.6-1.9 1.3-.3-.2-.7-.3-1.1-.3-1.1 0-2 .9-2 2 0 .4.1.7.3 1H14c-1.1 0-2 .9-2 2 0 .4.1.7.3 1H12c-1.1 0-2 .9-2 2 0 .6.3 1.1.7 1.5-.4.4-.7.9-.7 1.5s.3 1.1.7 1.5c-.4.4-.7.9-.7 1.5 0 1.1.9 2 2 2s2-.9 2-2v-.3c.3.2.7.3 1 .3 1.1 0 2-.9 2-2 0-.4-.1-.8-.3-1.1.1 0 .2-.1.3-.2.3.2.6.3 1 .3.9 0 1.6-.6 1.9-1.3.3.2.7.3 1.1.3.9 0 1.6-.6 1.9-1.3.3.2.7.3 1.1.3.9 0 1.6-.6 1.9-1.3.3.2.7.3 1.1.3 0 1.1.9 2 2 2 .4 0 .7-.1 1-.3v.3c0 .7.4 1.4 1 1.7v.3c0 1.1.9 2 2 2 .4 0 .7-.1 1-.3v.3c0 1.1.9 2 2 2s2-.9 2-2c0-.6-.3-1.1-.7-1.5.4-.4.7-.9.7-1.5 0-.4-.1-.7-.3-1 .2-.3.3-.6.3-1s-.1-.7-.3-1z"/><g fill="#F44336"><circle cx="24" cy="23" r="2"/><path d="M27.3 26.2c-.2-.2-.5-.2-.7 0 0 0-1.2 1.3-2.6 1.3-1.4 0-2.6-1.3-2.6-1.3-.2-.2-.5-.2-.7 0-.2.2-.2.5 0 .7.1.1 1.5 1.6 3.4 1.6s3.3-1.5 3.4-1.6c.1-.2 0-.5-.2-.7z"/></g></svg>