<?xml version="1.0" standalone="no"?>
<!DOCTYPE svg PUBLIC "-//W3C//DTD SVG 20010904//EN"
 "http://www.w3.org/TR/2001/REC-SVG-20010904/DTD/svg10.dtd">
<svg version="1.0" xmlns="http://www.w3.org/2000/svg"
 width="218.000000pt" height="218.000000pt" viewBox="0 0 218.000000 218.000000"
 preserveAspectRatio="xMidYMid meet">
<metadata>
Created by potrace 1.11, written by Peter Selinger 2001-2013
</metadata>
<g transform="translate(0.000000,218.000000) scale(0.100000,-0.100000)"
fill="#000000" stroke="none">
<path d="M1086 1783 c2 -29 -10 -49 -94 -156 -53 -67 -101 -127 -107 -133 -5
-6 -17 -22 -25 -34 -8 -12 -20 -28 -25 -34 -6 -6 -35 -42 -65 -81 -30 -38 -63
-79 -72 -89 -10 -11 -29 -37 -44 -58 -25 -36 -26 -39 -10 -63 9 -14 21 -26 26
-26 6 -1 16 -2 23 -3 16 -3 67 26 67 37 0 5 8 0 18 -11 27 -33 71 -33 102 0
11 12 20 16 20 10 0 -7 15 -20 34 -28 31 -15 35 -15 60 1 14 10 26 21 26 26 0
5 5 9 10 9 6 0 10 -6 10 -14 0 -13 23 -26 57 -32 7 -1 23 8 37 21 24 22 25 22
43 4 29 -29 60 -31 89 -5 l27 22 23 -22 c28 -29 60 -24 92 11 14 17 22 21 22
12 0 -39 80 -54 105 -21 8 10 14 26 15 34 0 12 -62 96 -171 230 -12 14 -40 50
-62 80 -23 30 -54 69 -69 85 -16 17 -28 33 -28 38 0 4 -8 15 -17 25 -28 28
-103 124 -103 132 0 10 88 4 103 -8 7 -6 46 -10 86 -10 61 1 71 3 58 13 -21
15 -22 25 -1 25 8 0 13 4 10 9 -3 5 -27 8 -52 6 -30 -1 -47 2 -51 10 -3 9 -22
13 -56 11 -29 -1 -66 1 -83 5 -30 6 -31 5 -28 -28z"/>
<path d="M936 1623 c-4 -4 -16 -8 -28 -10 -28 -4 -156 -66 -186 -90 -70 -55
-172 -168 -172 -191 0 -5 -7 -15 -15 -22 -8 -7 -15 -21 -15 -31 0 -11 -4 -19
-9 -19 -5 0 -12 -15 -16 -32 -4 -18 -9 -35 -10 -38 -9 -28 -27 -131 -29 -168
l-2 -47 -76 -26 c-41 -15 -89 -34 -105 -43 -17 -8 -33 -12 -37 -9 -13 13 -5
-34 14 -84 11 -29 16 -52 12 -50 -9 2 -185 -83 -192 -94 -3 -4 -12 -9 -20 -11
-26 -6 -39 -22 -28 -35 6 -7 14 -11 18 -8 4 3 13 -2 20 -10 7 -8 19 -15 28
-15 11 0 64 -27 90 -46 2 -1 -1 -26 -7 -56 -6 -29 -13 -67 -15 -85 -3 -18 -8
-37 -11 -43 -4 -6 20 2 54 19 98 50 311 131 384 146 10 2 27 7 37 10 20 6 48
-5 72 -28 15 -15 81 -62 88 -63 3 0 30 -12 60 -26 30 -14 78 -31 106 -37 60
-14 199 -18 264 -7 94 16 224 79 299 145 19 17 32 20 55 15 52 -10 220 -66
234 -76 6 -6 12 -7 12 -3 0 4 7 2 15 -5 8 -7 15 -10 15 -7 0 3 36 -12 80 -34
44 -21 85 -39 90 -39 6 0 10 -5 10 -11 0 -5 4 -8 9 -4 6 3 7 15 5 28 -3 12 -8
38 -11 57 -2 19 -8 52 -13 72 l-8 36 84 39 c46 21 82 43 81 48 -2 7 -214 121
-245 131 -1 0 7 27 18 59 11 32 19 60 17 61 -7 7 -146 63 -184 75 -24 7 -43
17 -43 23 -1 6 -2 36 -5 66 -4 57 -5 66 -25 140 -7 25 -12 47 -12 50 0 3 -8
16 -17 30 -9 14 -26 43 -36 64 -25 49 -135 164 -195 203 -40 26 -126 68 -140
68 -3 0 -11 4 -17 8 -7 5 -13 6 -13 2 0 -3 -9 -1 -20 5 -16 8 -20 8 -20 -4 0
-8 6 -19 13 -23 8 -4 18 -15 23 -24 17 -31 88 -109 98 -109 6 0 25 -12 41 -26
55 -46 105 -93 105 -98 0 -3 14 -26 31 -51 37 -55 66 -131 76 -200 13 -89 16
-86 -69 -64 -33 8 -38 14 -38 39 0 21 -4 28 -17 25 -10 -1 -30 4 -44 11 -23
11 -31 11 -56 -1 -30 -15 -66 -13 -88 5 -9 7 -20 6 -39 -4 -30 -15 -87 -11
-98 7 -5 8 -10 8 -20 -1 -23 -18 -69 -22 -98 -7 -23 12 -30 12 -47 0 -21 -15
-83 -10 -94 6 -3 6 -20 3 -40 -5 -33 -14 -84 -12 -94 5 -3 4 -21 1 -40 -7 -19
-8 -37 -14 -40 -14 -3 0 -9 0 -15 0 -5 0 -10 -13 -10 -29 0 -22 -5 -30 -17
-30 -10 1 -35 -2 -55 -6 l-38 -8 5 54 c5 66 34 152 72 216 34 59 127 153 182
184 23 12 41 26 41 30 0 5 22 35 50 68 27 33 46 62 41 65 -4 3 -11 2 -15 -1z"/>
</g>
</svg>
